<svg xmlns="http://www.w3.org/2000/svg" viewBox="0 0 800 500" fill="none">
  <defs>
    <linearGradient id="bg" x1="0%" y1="0%" x2="100%" y2="100%">
      <stop offset="0%" stop-color="#0f172a"/>
      <stop offset="100%" stop-color="#1e293b"/>
    </linearGradient>
  </defs>
  <rect width="800" height="500" fill="url(#bg)"/>
  <rect x="100" y="120" width="600" height="320" rx="8" fill="#334155" opacity="0.5"/>
  <g transform="translate(350, 80)">
    <ellipse cx="50" cy="25" rx="45" ry="22" fill="#475569"/>
    <rect x="15" y="20" width="70" height="28" rx="14" fill="#64748b"/>
    <circle cx="50" cy="34" r="10" fill="#0ea5e9"/>
    <rect x="46" y="48" width="8" height="30" fill="#94a3b8"/>
  </g>
  <g transform="translate(550, 60)">
    <ellipse cx="50" cy="25" rx="45" ry="22" fill="#475569"/>
    <rect x="15" y="20" width="70" height="28" rx="14" fill="#64748b"/>
    <circle cx="50" cy="34" r="10" fill="#0ea5e9"/>
    <rect x="46" y="48" width="8" height="30" fill="#94a3b8"/>
  </g>
  <rect x="200" y="200" width="80" height="100" rx="4" fill="#0ea5e9" opacity="0.2"/>
  <rect x="320" y="180" width="80" height="120" rx="4" fill="#0ea5e9" opacity="0.15"/>
  <rect x="440" y="210" width="80" height="90" rx="4" fill="#0ea5e9" opacity="0.2"/>
</svg>
